<?xml version="1.0" encoding="UTF-8" standalone="no"?>
<!-- Created with Inkscape (http://www.inkscape.org/) -->

<svg
   width="27.987936mm"
   height="28.673731mm"
   viewBox="0 0 27.987936 28.673731"
   version="1.1"
   id="svg5"
   xmlns="http://www.w3.org/2000/svg"
   xmlns:svg="http://www.w3.org/2000/svg">
  <defs
     id="defs2" />
  <g
     id="layer1"
     transform="translate(-100.18659,-148.2087)">
    <path
       style="fill:#ffd2a7;fill-opacity:1;stroke:none;stroke-width:0.306573px;stroke-linecap:butt;stroke-linejoin:miter;stroke-opacity:1"
       d="m 108.66997,153.70732 c -0.47046,0.31382 -2.12089,1.48975 -2.45745,2.46112 -0.33656,0.97137 -0.0998,2.78825 -0.1344,3.54068 -0.0347,0.75242 -0.55352,1.82625 -1.22935,2.4773 -0.67584,0.65104 -1.67202,1.22969 -2.51148,2.17171 -0.83947,0.94203 -1.70879,2.55668 -2.01625,4.05733 -0.30746,1.50065 -0.10491,3.32151 0.78705,4.75597 0.89196,1.43447 2.83473,3.11617 4.06306,3.53215 1.22833,0.41597 2.47219,0.0698 3.37238,-0.66102 0.90019,-0.73082 1.59188,-1.92243 2.49489,-2.83797 0.90301,-0.91554 2.2615,-1.74821 3.69974,-1.86493 1.43824,-0.11673 3.39828,0.24876 4.4335,0.36502 1.03522,0.11627 1.82388,-0.63462 2.32159,-1.52887 0.49771,-0.89426 1.08979,-2.64468 1.30704,-4.1922 0.21726,-1.54753 0.1614,-3.28462 -0.10412,-4.79042 -0.26553,-1.5058 -0.74886,-2.95343 -1.46463,-4.20566 -0.71577,-1.25224 -1.65208,-2.33627 -2.76114,-3.22586 -1.10905,-0.8896 -2.61271,-1.67752 -3.95396,-1.71374 -1.34126,-0.0362 -2.93891,0.41372 -3.96498,0.76381 -1.02606,0.35009 -1.41104,0.58177 -1.88149,0.89558 z"
       id="path34101" />
    <g
       aria-label="?"
       transform="matrix(1.1529442,0.36352838,-0.24874787,0.7889134,9.8529183,-6.4847454)"
       id="text34109"
       style="font-size:35.4264px;line-height:1.25;-inkscape-font-specification:sans-serif;fill:#fff5ec;stroke:#ff7b00;stroke-width:0.885661">
      <path
         d="m 133.83055,150.05289 -1.98927,-0.0519 c 0,0.66886 -0.098,1.30312 -0.29407,1.90279 -0.18451,0.58813 -0.47858,1.14744 -0.8822,1.67791 l 2.02387,1.19356 c 0.52249,0.33758 -0.5999,1.96427 -1.10707,1.47034 l -1.71251,-1.64332 c -0.27677,0.29983 -0.64579,0.5939 -1.10707,0.8822 -0.44975,0.2883 -0.98023,0.57084 -1.59142,0.84761 l 1.50493,2.11036 c 0.35134,0.78582 -1.2132,2.2005 -1.7644,1.02058 l -1.12438,-2.56011 c 0,0 -0.93304,0.64917 -1.13279,1.28347 -0.60684,1.92696 0.21174,6.35621 0.21174,6.35621 -1.24507,-1.32985 -3.9065,-0.91738 -5.74492,0.8077 0,0 2.76814,-8.8164 3.69071,-9.1393 0.93409,-0.32289 1.77593,-0.74381 2.52551,-1.26276 0.88797,-0.62273 1.55106,-1.34924 1.98928,-2.17955 0.44975,-0.83031 0.67462,-1.7644 0.67462,-2.80228 0,-0.73805 -0.098,-1.40691 -0.29406,-2.00658 -0.18451,-0.59967 -0.47858,-1.13014 -0.8822,-1.59142 -0.41515,-0.47281 -0.91103,-0.82454 -1.48764,-1.05518 -0.5766,-0.24217 -1.23392,-0.36326 -1.97197,-0.36326 -0.47281,0 -0.9168,0.0634 -1.33195,0.19028 -0.41515,0.11532 -0.80148,0.28253 -1.15897,0.50164 -0.41515,0.25371 -0.72652,0.55931 -0.9341,0.9168 -0.20757,0.35749 -0.31136,0.76111 -0.31136,1.21086 0,0.65733 0.16145,1.15321 0.48434,1.48764 0.3229,0.33443 0.80725,0.50164 1.45304,0.50164 0.38055,0 0.73805,-0.0865 1.07248,-0.25947 0.33443,-0.17298 0.63426,-0.44398 0.8995,-0.81301 0.64025,-0.77081 1.03406,0.24808 0.8476,0.67462 -0.21911,0.34597 -0.47858,0.6631 -0.77841,0.9514 -0.2883,0.27677 -0.61696,0.51317 -0.98599,0.70922 l 0.79571,1.64331 c 0.3495,0.72179 -1.5283,1.43686 -1.7644,0.62273 l -0.50164,-1.7298 c -0.11532,0.0461 -0.24794,0.075 -0.39786,0.0865 -0.14991,0.0115 -0.31713,0.0173 -0.50164,0.0173 -0.63427,0 -1.1878,-0.10379 -1.66061,-0.31136 -0.46129,-0.21911 -0.84185,-0.542 -1.14168,-0.96869 l -1.85089,1.00329 c -0.13022,0.0706 -0.90805,-1.62977 -0.48434,-1.76441 l 1.85089,-0.58813 c -0.0231,-0.0923 -0.0461,-0.19028 -0.0692,-0.29407 -0.0115,-0.11532 -0.0173,-0.2364 -0.0173,-0.36325 0,-0.53047 0.11532,-1.04942 0.34596,-1.55683 0.23064,-0.50741 0.57083,-0.98599 1.02058,-1.43574 l -1.53952,-1.31465 c -0.47466,-0.40533 0.81358,-2.13636 1.22816,-1.60872 l 1.52223,1.93738 c 0.55353,-0.32289 1.14743,-0.58813 1.7817,-0.79571 0.63426,-0.20757 1.30312,-0.36325 2.00657,-0.46704 l -0.13838,-1.98928 c -0.055,-0.79056 1.62601,-0.98491 1.62601,-0.19028 v 2.12766 c 0.70345,0.0346 1.36078,0.13839 1.97198,0.31137 0.6112,0.16145 1.55725,0.66186 2.07619,0.97323 l 1.00286,-2.02841 c 0.0816,-0.16512 1.5863,0.62506 1.22816,1.08977 l -1.26766,1.64487 c 0.59967,0.55353 0.80062,0.88641 1.18117,1.52068 0.38056,0.62273 0.6458,1.29158 0.79571,2.00657 l 1.97198,-0.57084 c 0.70085,-0.0563 0.89061,2.07828 0.13839,2.02386 z m -8.13008,19.20083 c 0,0.87643 -0.31136,1.63755 -0.93409,2.28334 -0.6112,0.63426 -1.35502,0.95139 -2.23145,0.95139 -0.8649,0 -1.60872,-0.31713 -2.23145,-0.95139 -0.61119,-0.64579 -0.91679,-1.40691 -0.91679,-2.28334 0,-0.86491 0.3056,-1.60872 0.91679,-2.23145 0.62273,-0.62273 1.36655,-0.93409 2.23145,-0.93409 0.8649,0 1.60872,0.31136 2.23145,0.93409 0.62273,0.62273 0.93409,1.36654 0.93409,2.23145 z m -2.02387,0.44975 c 0,-0.41515 -0.13838,-0.78418 -0.41515,-1.10708 -0.26524,-0.32289 -0.5939,-0.48434 -0.98599,-0.48434 -0.47281,0 -0.83031,0.13262 -1.07248,0.39785 -0.23064,0.26524 -0.34596,0.6631 -0.34596,1.19357 0,0.40362 0.13262,0.76688 0.39785,1.08977 0.27677,0.3229 0.61697,0.48435 1.02059,0.48435 0.39209,0 0.72075,-0.16145 0.98599,-0.48435 0.27677,-0.33443 0.41515,-0.69768 0.41515,-1.08977 z"
         style="font-family:Jokerman;-inkscape-font-specification:Jokerman"
         id="path34462" />
    </g>
  </g>
</svg>
