<?xml version="1.0" encoding="UTF-8" standalone="no"?>
<!-- Created with Inkscape (http://www.inkscape.org/) -->

<svg
   width="25.855856mm"
   height="25.108219mm"
   viewBox="0 0 25.855856 25.108219"
   version="1.1"
   id="svg5"
   xmlns="http://www.w3.org/2000/svg"
   xmlns:svg="http://www.w3.org/2000/svg">
  <defs
     id="defs2" />
  <g
     id="layer1"
     transform="translate(-118.68393,-171.09242)">
    <path
       style="fill:#ffd2a7;fill-opacity:1;stroke:none;stroke-width:0.264583px;stroke-linecap:butt;stroke-linejoin:miter;stroke-opacity:1"
       d="m 125.63248,176.18173 c -2.36902,-0.0413 -4.3891,2.693 -3.48326,4.90554 0.42044,1.473 -1.89772,1.97862 -2.66156,2.99862 -1.37576,0.48387 -0.64494,1.54178 -0.2872,2.5068 0.48675,1.17586 0.75582,2.47892 1.63774,3.44155 1.18084,1.60319 1.85224,3.70939 3.48172,4.8536 1.30764,0.91822 3.03953,1.37638 4.61221,1.30569 1.65331,-0.3445 3.36428,-0.52516 4.97633,-0.99928 1.31222,-0.78356 2.54886,-1.73183 3.91553,-2.40068 1.50966,-0.33093 3.36785,0.0272 4.529,-0.99277 1.19238,-1.0474 1.2117,-2.94443 1.61055,-4.48058 0.26446,-1.01855 0.75076,-2.09016 0.51232,-3.11511 -0.61236,-2.63222 -2.52743,-4.88881 -4.71177,-6.59784 -3.00699,-2.59787 -7.36063,-3.98463 -11.21872,-2.64276 -0.97978,0.32424 -1.87178,1.19225 -2.91289,1.21722 z"
       id="path34678" />
    <path
       style="fill:#ffffff;fill-opacity:1;stroke:#000000;stroke-width:0.264583px;stroke-linecap:butt;stroke-linejoin:miter;stroke-opacity:1"
       d="m 133.66539,174.39733 -4.51965,0.21248 -1.79642,1.49209 -1.51747,-0.19839 -2.13272,8.73452 -0.53991,4.02094 0.33502,1.19609 1.90428,1.00376 9.63237,1.99947 2.23873,0.12545 0.99349,-0.75123 0.96974,-3.56088 1.97398,-9.37801 c 0,0 -0.10855,-1.27025 -0.35416,-1.3412 -0.24562,-0.0709 -2.86524,-2.13201 -2.86524,-2.13201 z"
       id="path36401" />
    <rect
       style="fill:none;fill-opacity:1;stroke:#ff7b00;stroke-width:1;stroke-linecap:round;stroke-linejoin:round;stroke-miterlimit:4;stroke-dasharray:none;stroke-dashoffset:0;stroke-opacity:1;paint-order:markers fill stroke"
       id="rect21317"
       width="16.01528"
       height="18.468679"
       x="156.45496"
       y="145.18387"
       ry="2.2202861"
       transform="rotate(10.917983)" />
    <path
       id="rect21555"
       style="fill:#ffe3c9;fill-opacity:1;stroke:#ff7b00;stroke-width:0.264203;stroke-linecap:round;stroke-linejoin:round;stroke-miterlimit:4;stroke-dasharray:none;stroke-dashoffset:0;stroke-opacity:1;paint-order:markers fill stroke"
       d="m 130.02956,179.6138 c -0.19775,-0.0382 -0.38517,0.0771 -0.42014,0.25842 l -0.39884,2.06762 c -0.035,0.18129 0.0961,0.35801 0.29388,0.39616 l 1.84095,0.35511 c 0.19775,0.0382 0.38518,-0.0771 0.42014,-0.25843 l 0.39884,-2.06761 c 0.035,-0.18128 -0.0961,-0.35802 -0.29389,-0.39615 z m 3.53969,0.68279 c -0.19775,-0.0382 -0.38467,0.0772 -0.41964,0.25853 l -0.39883,2.0676 c -0.035,0.1813 0.0956,0.35792 0.29337,0.39606 l 1.84095,0.35511 c 0.19775,0.0382 0.38516,-0.0771 0.42013,-0.25842 l 0.39884,-2.06762 c 0.035,-0.18128 -0.0961,-0.35801 -0.29388,-0.39615 z m 3.54018,0.68289 c -0.19775,-0.0382 -0.38517,0.0771 -0.42013,0.25842 l -0.39883,2.06761 c -0.035,0.18129 0.0961,0.35801 0.29387,0.39616 l 1.84043,0.35501 c 0.19776,0.0382 0.38518,-0.0771 0.42016,-0.25843 l 0.39883,-2.0676 c 0.035,-0.18129 -0.0961,-0.35802 -0.29389,-0.39616 z" />
    <path
       id="rect21563"
       style="fill:#ffe3c9;fill-opacity:1;stroke:#ff7b00;stroke-width:0.264203;stroke-linecap:round;stroke-linejoin:round;stroke-miterlimit:4;stroke-dasharray:none;stroke-dashoffset:0;stroke-opacity:1;paint-order:markers fill stroke"
       d="m 125.79873,182.51397 c -0.19774,-0.0382 -0.38517,0.0771 -0.42013,0.25843 l -0.39883,2.0676 c -0.035,0.18129 0.0961,0.35802 0.29387,0.39616 l 1.84094,0.35511 c 0.19775,0.0382 0.38519,-0.0771 0.42016,-0.25843 l 0.39883,-2.0676 c 0.035,-0.18129 -0.0961,-0.35802 -0.29389,-0.39616 z m 3.53969,0.68279 c -0.19775,-0.0382 -0.38517,0.0771 -0.42014,0.25843 l -0.39883,2.0676 c -0.035,0.18129 0.0961,0.35802 0.29387,0.39617 l 1.84095,0.3551 c 0.19775,0.0382 0.38519,-0.0771 0.42016,-0.25843 l 0.39883,-2.0676 c 0.035,-0.18128 -0.0961,-0.35802 -0.29389,-0.39616 z m 3.53969,0.68278 c -0.19775,-0.0382 -0.38466,0.0772 -0.41964,0.25854 l -0.39883,2.0676 c -0.035,0.18128 0.0956,0.35791 0.29337,0.39607 l 1.84095,0.35511 c 0.19775,0.0382 0.38518,-0.0771 0.42014,-0.25844 l 0.39883,-2.06761 c 0.035,-0.18127 -0.0961,-0.35801 -0.29388,-0.39616 z m 3.54019,0.68289 c -0.19775,-0.0382 -0.38517,0.0772 -0.42014,0.25844 l -0.39883,2.0676 c -0.035,0.18129 0.0961,0.35802 0.29388,0.39616 l 1.84043,0.35501 c 0.19776,0.0382 0.38518,-0.0771 0.42015,-0.25843 l 0.39883,-2.06761 c 0.035,-0.18128 -0.0961,-0.35801 -0.29388,-0.39616 z" />
    <path
       id="rect21571"
       style="fill:#ffe3c9;fill-opacity:1;stroke:#ff7b00;stroke-width:0.264203;stroke-linecap:round;stroke-linejoin:round;stroke-miterlimit:4;stroke-dasharray:none;stroke-dashoffset:0;stroke-opacity:1;paint-order:markers fill stroke"
       d="m 125.20408,186.1157 c -0.19777,-0.0382 -0.38519,0.0771 -0.42016,0.25843 l -0.39883,2.0676 c -0.035,0.18129 0.0961,0.35802 0.29389,0.39616 l 1.84093,0.35511 c 0.19775,0.0382 0.38518,-0.0771 0.42015,-0.25843 l 0.39883,-2.06759 c 0.035,-0.1813 -0.0961,-0.35802 -0.29388,-0.39617 z m 3.53967,0.68278 c -0.19775,-0.0382 -0.38467,0.0772 -0.41964,0.25854 l -0.39883,2.06759 c -0.035,0.1813 0.0956,0.35792 0.29338,0.39606 l 1.84094,0.35512 c 0.19775,0.0382 0.38518,-0.0771 0.42015,-0.25843 l 0.39883,-2.0676 c 0.035,-0.18129 -0.0961,-0.35801 -0.29388,-0.39617 z m 3.53969,0.6828 c -0.19775,-0.0382 -0.38467,0.0772 -0.41964,0.25852 l -0.39883,2.0676 c -0.035,0.1813 0.0956,0.35792 0.29338,0.39606 l 1.84094,0.35511 c 0.19775,0.0382 0.38517,-0.0771 0.42014,-0.25843 l 0.39883,-2.06759 c 0.035,-0.1813 -0.0961,-0.35802 -0.29387,-0.39616 z" />
    <path
       style="fill:#ff7b00;fill-opacity:1;stroke:none;stroke-width:0.242087px;stroke-linecap:butt;stroke-linejoin:miter;stroke-opacity:1"
       d="m 128.70599,172.7012 c -0.17209,-0.14483 -1.50859,0.0439 -1.50859,0.0439 l -0.69789,0.50726 -0.75199,1.30616 -0.35102,1.3852 5.1593,0.99317 8.26514,1.56639 2.25178,0.76926 0.22741,-1.35153 0.25128,-1.82136 -0.79811,-1.04701 -4.26423,-0.87836 -7.99762,-1.57062"
       id="path29858" />
    <path
       style="fill:none;stroke:#ff7b00;stroke-width:1;stroke-linecap:butt;stroke-linejoin:miter;stroke-miterlimit:4;stroke-dasharray:none;stroke-opacity:1"
       d="m 125.72004,176.24307 15.36286,2.96343"
       id="path23645" />
    <text
       xml:space="preserve"
       style="font-size:3.15124px;line-height:1.25;font-family:Vidaloka;-inkscape-font-specification:Vidaloka;fill:#ffffff;fill-opacity:1;stroke-width:0.0787811"
       x="149.31221"
       y="161.05511"
       id="text25997"
       transform="matrix(1.0595508,0.20438222,-0.17552278,0.90993869,0,0)"><tspan
         id="tspan25995"
         style="font-style:normal;font-variant:normal;font-weight:normal;font-stretch:normal;font-family:'Arial Rounded MT Bold';-inkscape-font-specification:'Arial Rounded MT Bold, ';fill:#ffffff;fill-opacity:1;stroke-width:0.0787811"
         x="149.31221"
         y="161.05511">JAN</tspan></text>
    <path
       id="path32446"
       style="color:#000000;fill:#ff7b00;fill-opacity:1;stroke:#ffffff;stroke-width:0.2;stroke-linecap:round;stroke-miterlimit:4;stroke-dasharray:none;stroke-opacity:1"
       d="m 129.21139,171.20142 a 0.5,0.5 0 0 0 -0.58531,0.39602 l -0.27269,1.41364 a 0.5,0.5 0 0 0 0.39592,0.58582 0.5,0.5 0 0 0 0.58592,-0.39643 l 0.27268,-1.41364 a 0.5,0.5 0 0 0 -0.39652,-0.58541 z m 2.21789,0.42782 a 0.5,0.5 0 0 0 -0.58582,0.39593 l -0.27269,1.41364 a 0.5,0.5 0 0 0 0.39643,0.58591 0.5,0.5 0 0 0 0.58542,-0.39652 l 0.27268,-1.41364 a 0.5,0.5 0 0 0 -0.39602,-0.58532 z m 5.58253,1.07684 a 0.5,0.5 0 0 0 -0.58582,0.39592 l -0.27269,1.41365 a 0.5,0.5 0 0 0 0.39653,0.58541 0.5,0.5 0 0 0 0.58531,-0.39602 l 0.27269,-1.41364 a 0.5,0.5 0 0 0 -0.39602,-0.58532 z m 2.21739,0.42772 a 0.5,0.5 0 0 0 -0.58531,0.39603 l -0.27269,1.41364 a 0.5,0.5 0 0 0 0.39602,0.58531 0.5,0.5 0 0 0 0.58582,-0.39592 l 0.27268,-1.41364 a 0.5,0.5 0 0 0 -0.39652,-0.58542 z" />
  </g>
</svg>
