<?xml version="1.0" encoding="UTF-8" standalone="no"?>
<!-- Created with Inkscape (http://www.inkscape.org/) -->

<svg
   width="23.860939mm"
   height="25.981855mm"
   viewBox="0 0 23.860939 25.981855"
   version="1.1"
   id="svg5"
   sodipodi:docname="List.svg"
   inkscape:version="1.1.1 (3bf5ae0d25, 2021-09-20)"
   xmlns:inkscape="http://www.inkscape.org/namespaces/inkscape"
   xmlns:sodipodi="http://sodipodi.sourceforge.net/DTD/sodipodi-0.dtd"
   xmlns="http://www.w3.org/2000/svg"
   xmlns:svg="http://www.w3.org/2000/svg">
  <sodipodi:namedview
     id="namedview7"
     pagecolor="#ffffff"
     bordercolor="#666666"
     borderopacity="1.0"
     inkscape:pageshadow="2"
     inkscape:pageopacity="0.0"
     inkscape:pagecheckerboard="0"
     inkscape:document-units="mm"
     showgrid="false"
     inkscape:snap-global="false"
     inkscape:zoom="2.361268"
     inkscape:cx="38.538616"
     inkscape:cy="66.27795"
     inkscape:window-width="1920"
     inkscape:window-height="991"
     inkscape:window-x="-9"
     inkscape:window-y="-9"
     inkscape:window-maximized="1"
     inkscape:current-layer="layer1" />
  <defs
     id="defs2">
    <inkscape:path-effect
       effect="spiro"
       id="path-effect91751"
       is_visible="true"
       lpeversion="1" />
    <inkscape:path-effect
       effect="spiro"
       id="path-effect34680"
       is_visible="true"
       lpeversion="1" />
    <inkscape:path-effect
       effect="spiro"
       id="path-effect23647"
       is_visible="true"
       lpeversion="1" />
    <inkscape:path-effect
       effect="spiro"
       id="path-effect21109"
       is_visible="true"
       lpeversion="1" />
    <inkscape:path-effect
       effect="spiro"
       id="path-effect19670"
       is_visible="true"
       lpeversion="1" />
    <inkscape:path-effect
       effect="spiro"
       id="path-effect8184"
       is_visible="true"
       lpeversion="1" />
    <inkscape:path-effect
       effect="bspline"
       id="path-effect34105"
       is_visible="true"
       lpeversion="1"
       weight="33.333333"
       steps="2"
       helper_size="0"
       apply_no_weight="true"
       apply_with_weight="true"
       only_selected="false" />
  </defs>
  <g
     inkscape:label="Layer 1"
     inkscape:groupmode="layer"
     id="layer1"
     transform="translate(-120.60189,-168.99613)">
    <path
       style="fill:#9cd7ff;fill-opacity:1;stroke:#9cd7ff;stroke-width:0.312253px;stroke-linecap:butt;stroke-linejoin:miter;stroke-opacity:1"
       d="m 137.51582,169.22038 c -0.8957,-0.15991 -1.82077,-0.0188 -2.69649,0.22813 -0.87571,0.24691 -1.71849,0.59801 -2.58668,0.87023 -1.68983,0.52984 -3.46034,0.75628 -5.16628,1.23171 -0.41159,0.1147 -0.82337,0.24569 -1.19098,0.46345 -0.36761,0.21776 -0.69151,0.53092 -0.85286,0.92655 -0.0579,0.14197 -0.094,0.29177 -0.14393,0.43674 -0.0499,0.14497 -0.11572,0.28821 -0.22232,0.39842 -0.13057,0.13499 -0.3126,0.20976 -0.49641,0.24827 -0.18381,0.0385 -0.37264,0.0442 -0.5596,0.0619 -0.48395,0.0458 -0.96391,0.1751 -1.38691,0.41462 -0.423,0.23952 -0.78708,0.59297 -1.00446,1.02777 -0.23373,0.46751 -0.28972,1.00532 -0.27169,1.52769 0.018,0.52238 0.10582,1.03983 0.14335,1.56117 0.0528,0.73383 0.006,1.47193 -0.0862,2.20191 -0.0614,0.48811 -0.14284,0.97375 -0.19278,1.46317 -0.0473,0.46338 -0.0662,0.93243 -0.004,1.39409 0.0618,0.46167 0.20716,0.91752 0.46764,1.30366 0.21176,0.31391 0.49313,0.57374 0.73328,0.86652 0.12007,0.14638 0.2304,0.30196 0.3135,0.47208 0.0831,0.17012 0.13852,0.35559 0.14526,0.54481 0.009,0.25678 -0.0707,0.50781 -0.15772,0.74957 -0.0871,0.24175 -0.18317,0.48413 -0.20881,0.7398 -0.0407,0.40591 0.0992,0.80789 0.11484,1.21553 0.009,0.24215 -0.0242,0.49295 0.0581,0.72087 0.0732,0.20274 0.23922,0.36984 0.44146,0.44439 0.20224,0.0746 0.43699,0.0552 0.62427,-0.0515 0.43163,0.12955 0.87156,0.23142 1.3162,0.30478 0.23263,0.0384 0.47133,0.0704 0.68184,0.17664 0.10525,0.0531 0.20225,0.12487 0.2758,0.217 0.0735,0.0921 0.12276,0.20537 0.12966,0.32306 0.005,0.0874 -0.0129,0.17502 -0.0431,0.25719 -0.0302,0.0822 -0.0723,0.1594 -0.11679,0.23482 -0.0889,0.15083 -0.18948,0.30025 -0.2248,0.47174 -0.0329,0.15994 -0.005,0.32973 0.0665,0.47652 0.0716,0.14678 0.18521,0.27105 0.31813,0.3659 0.26585,0.18972 0.59818,0.26017 0.92303,0.29392 0.30005,0.0312 0.60219,0.0349 0.90381,0.0399 1.48652,0.0243 2.98028,0.0776 4.45408,-0.11794 0.69689,-0.0925 1.38608,-0.24024 2.08515,-0.31434 1.17206,-0.12424 2.37205,-0.0418 3.51524,-0.32862 0.66899,-0.16785 1.3081,-0.46014 1.9917,-0.55183 0.45539,-0.0611 0.91891,-0.0312 1.37519,-0.0853 0.22814,-0.027 0.45515,-0.0754 0.66706,-0.16411 0.21191,-0.0887 0.40879,-0.21916 0.5576,-0.39419 0.19363,-0.22773 0.2965,-0.51712 0.38896,-0.80138 0.0925,-0.28426 0.18113,-0.57596 0.35354,-0.82015 0.13564,-0.19213 0.31732,-0.34629 0.49849,-0.49625 0.18117,-0.14997 0.36567,-0.29978 0.50937,-0.48596 0.27579,-0.3573 0.37953,-0.82822 0.34377,-1.27817 -0.0358,-0.44994 -0.20178,-0.88134 -0.41951,-1.27672 -0.19052,-0.34596 -0.42103,-0.66867 -0.61102,-1.01493 -0.40316,-0.73478 -0.61772,-1.5641 -1.04983,-2.28224 -0.22993,-0.38213 -0.51805,-0.72677 -0.74769,-1.10908 -0.22964,-0.38231 -0.40228,-0.81977 -0.3656,-1.26424 0.034,-0.4118 0.25623,-0.80433 0.59188,-1.04531 -0.0271,-0.95109 -0.22101,-1.89719 -0.57015,-2.78229 -0.11791,-0.29891 -0.25412,-0.59335 -0.32026,-0.9078 -0.0918,-0.43648 -0.0441,-0.88852 -0.004,-1.33278 0.0438,-0.49073 0.0775,-0.98237 0.1009,-1.4745 0.0581,-0.99538 -0.26049,-2.00825 -0.87801,-2.79109 -0.61753,-0.78283 -1.52837,-1.32854 -2.50993,-1.50377 z"
       id="path91749"
       sodipodi:nodetypes="ccsccccccccccccccccccccccccccccccccccc" />
    <rect
       style="fill:#ffffff;fill-opacity:1;stroke:#494f6b;stroke-width:1;stroke-linecap:round;stroke-linejoin:round;stroke-miterlimit:4;stroke-dasharray:none;stroke-dashoffset:0;stroke-opacity:1;paint-order:markers fill stroke"
       id="rect49404"
       width="14.737206"
       height="19.966537"
       x="108.48779"
       y="184.14661"
       ry="2.1392717"
       transform="rotate(-4.650918)" />
    <g
       id="g90760"
       transform="rotate(-4.650918,127.35032,182.13591)">
      <path
         id="rect52481"
         style="fill:#ffffff;stroke:#494f6b;stroke-width:0.250361;stroke-linecap:round;stroke-linejoin:round;stroke-miterlimit:4;stroke-dasharray:none;stroke-opacity:1;paint-order:markers fill stroke"
         d="m 126.03619,178.05082 h 0.38452 0.38453 0.38453 0.38453 c 0.17431,0 0.31462,0.10167 0.31462,0.22797 v 1.67179 c 0,0.1263 -0.14031,0.22797 -0.31462,0.22797 h -0.38453 -0.38453 -0.38453 -0.38452 c -0.1743,0 -0.31461,-0.10167 -0.31461,-0.22797 v -1.67179 c 0,-0.1263 0.14031,-0.22797 0.31461,-0.22797 z"
         sodipodi:nodetypes="scccsssscccssss" />
      <text
         xml:space="preserve"
         style="font-size:1.98959px;line-height:1.25;font-family:Vidaloka;-inkscape-font-specification:Vidaloka;fill:#494f6b;fill-opacity:1;stroke-width:0.0497396"
         x="128.37975"
         y="179.75861"
         id="text55575"><tspan
           sodipodi:role="line"
           id="tspan55573"
           style="font-style:normal;font-variant:normal;font-weight:bold;font-stretch:normal;font-family:Vidaloka;-inkscape-font-specification:'Vidaloka Bold';fill:#494f6b;fill-opacity:1;stroke-width:0.0497396"
           x="128.37975"
           y="179.75861">event 1</tspan></text>
      <path
         style="fill:none;stroke:#494f6b;stroke-width:0.0761331;stroke-linecap:butt;stroke-linejoin:miter;stroke-miterlimit:4;stroke-dasharray:none;stroke-opacity:1"
         d="m 127.62282,179.70268 -0.36712,-0.94622 -0.78896,0.93893 z"
         id="path61553"
         sodipodi:nodetypes="cccc" />
      <path
         style="fill:#ffffff;fill-opacity:1;stroke:#494f6b;stroke-width:0.0917908;stroke-linecap:butt;stroke-linejoin:miter;stroke-miterlimit:4;stroke-dasharray:none;stroke-opacity:1"
         d="m 126.01606,179.69071 0.46969,-1.0751 0.73975,1.06682 z"
         id="path60110"
         sodipodi:nodetypes="cccc" />
    </g>
    <g
       id="g90753"
       transform="rotate(-4.650918,136.89109,181.74847)">
      <path
         id="path81058"
         style="fill:#ffffff;stroke:#494f6b;stroke-width:0.250361;stroke-linecap:round;stroke-linejoin:round;stroke-miterlimit:4;stroke-dasharray:none;stroke-opacity:1;paint-order:markers fill stroke"
         d="m 126.03619,181.04819 h 0.38452 0.38453 0.38453 0.38453 c 0.17431,0 0.31462,0.10167 0.31462,0.22797 v 1.67179 c 0,0.1263 -0.14031,0.22797 -0.31462,0.22797 h -0.38453 -0.38453 -0.38453 -0.38452 c -0.1743,0 -0.31461,-0.10167 -0.31461,-0.22797 v -1.67179 c 0,-0.1263 0.14031,-0.22797 0.31461,-0.22797 z"
         sodipodi:nodetypes="scccsssscccssss" />
      <text
         xml:space="preserve"
         style="font-size:1.98959px;line-height:1.25;font-family:Vidaloka;-inkscape-font-specification:Vidaloka;fill:#494f6b;fill-opacity:1;stroke-width:0.0497396"
         x="128.37975"
         y="182.75598"
         id="text81062"><tspan
           sodipodi:role="line"
           id="tspan81060"
           style="font-style:normal;font-variant:normal;font-weight:bold;font-stretch:normal;font-family:Vidaloka;-inkscape-font-specification:'Vidaloka Bold';fill:#494f6b;fill-opacity:1;stroke-width:0.0497396"
           x="128.37975"
           y="182.75598">event 2</tspan></text>
      <path
         style="fill:none;stroke:#494f6b;stroke-width:0.0761331;stroke-linecap:butt;stroke-linejoin:miter;stroke-miterlimit:4;stroke-dasharray:none;stroke-opacity:1"
         d="m 127.62282,182.70005 -0.36712,-0.94622 -0.78896,0.93893 z"
         id="path81064"
         sodipodi:nodetypes="cccc" />
      <path
         style="fill:#ffffff;fill-opacity:1;stroke:#494f6b;stroke-width:0.0917908;stroke-linecap:butt;stroke-linejoin:miter;stroke-miterlimit:4;stroke-dasharray:none;stroke-opacity:1"
         d="m 126.01606,182.68808 0.46969,-1.0751 0.73975,1.06682 z"
         id="path81066"
         sodipodi:nodetypes="cccc" />
    </g>
    <g
       id="g90746"
       transform="rotate(-4.650918,149.68049,181.2291)">
      <path
         id="path85990"
         style="fill:#ffffff;stroke:#494f6b;stroke-width:0.250361;stroke-linecap:round;stroke-linejoin:round;stroke-miterlimit:4;stroke-dasharray:none;stroke-opacity:1;paint-order:markers fill stroke"
         d="m 126.03619,183.78171 h 0.38452 0.38453 0.38453 0.38453 c 0.17431,0 0.31462,0.10167 0.31462,0.22797 v 1.67179 c 0,0.1263 -0.14031,0.22797 -0.31462,0.22797 h -0.38453 -0.38453 -0.38453 -0.38452 c -0.1743,0 -0.31461,-0.10167 -0.31461,-0.22797 v -1.67179 c 0,-0.1263 0.14031,-0.22797 0.31461,-0.22797 z"
         sodipodi:nodetypes="scccsssscccssss" />
      <text
         xml:space="preserve"
         style="font-size:1.98959px;line-height:1.25;font-family:Vidaloka;-inkscape-font-specification:Vidaloka;fill:#494f6b;fill-opacity:1;stroke-width:0.0497396"
         x="128.37975"
         y="185.48949"
         id="text85994"><tspan
           sodipodi:role="line"
           id="tspan85992"
           style="font-style:normal;font-variant:normal;font-weight:bold;font-stretch:normal;font-family:Vidaloka;-inkscape-font-specification:'Vidaloka Bold';fill:#494f6b;fill-opacity:1;stroke-width:0.0497396"
           x="128.37975"
           y="185.48949">event 3</tspan></text>
      <path
         style="fill:none;stroke:#494f6b;stroke-width:0.0761331;stroke-linecap:butt;stroke-linejoin:miter;stroke-miterlimit:4;stroke-dasharray:none;stroke-opacity:1"
         d="m 127.62282,185.43357 -0.36712,-0.94622 -0.78896,0.93893 z"
         id="path85996"
         sodipodi:nodetypes="cccc" />
      <path
         style="fill:#ffffff;fill-opacity:1;stroke:#494f6b;stroke-width:0.0917908;stroke-linecap:butt;stroke-linejoin:miter;stroke-miterlimit:4;stroke-dasharray:none;stroke-opacity:1"
         d="m 126.01606,185.4216 0.46969,-1.0751 0.73975,1.06682 z"
         id="path85998"
         sodipodi:nodetypes="cccc" />
    </g>
    <g
       id="g90739"
       transform="rotate(-4.650918,161.98219,180.72954)">
      <path
         id="path87633"
         style="fill:#ffffff;stroke:#494f6b;stroke-width:0.250361;stroke-linecap:round;stroke-linejoin:round;stroke-miterlimit:4;stroke-dasharray:none;stroke-opacity:1;paint-order:markers fill stroke"
         d="m 126.03619,186.55484 h 0.38452 0.38453 0.38453 0.38453 c 0.17431,0 0.31462,0.10167 0.31462,0.22797 v 1.67179 c 0,0.1263 -0.14031,0.22797 -0.31462,0.22797 h -0.38453 -0.38453 -0.38453 -0.38452 c -0.1743,0 -0.31461,-0.10167 -0.31461,-0.22797 v -1.67179 c 0,-0.1263 0.14031,-0.22797 0.31461,-0.22797 z"
         sodipodi:nodetypes="scccsssscccssss" />
      <text
         xml:space="preserve"
         style="font-size:1.98959px;line-height:1.25;font-family:Vidaloka;-inkscape-font-specification:Vidaloka;fill:#494f6b;fill-opacity:1;stroke-width:0.0497396"
         x="128.37975"
         y="188.26262"
         id="text87637"><tspan
           sodipodi:role="line"
           id="tspan87635"
           style="font-style:normal;font-variant:normal;font-weight:bold;font-stretch:normal;font-family:Vidaloka;-inkscape-font-specification:'Vidaloka Bold';fill:#494f6b;fill-opacity:1;stroke-width:0.0497396"
           x="128.37975"
           y="188.26262">event 4</tspan></text>
      <path
         style="fill:none;stroke:#494f6b;stroke-width:0.0761331;stroke-linecap:butt;stroke-linejoin:miter;stroke-miterlimit:4;stroke-dasharray:none;stroke-opacity:1"
         d="m 127.62282,188.2067 -0.36712,-0.94622 -0.78896,0.93893 z"
         id="path87639"
         sodipodi:nodetypes="cccc" />
      <path
         style="fill:#ffffff;fill-opacity:1;stroke:#494f6b;stroke-width:0.0917908;stroke-linecap:butt;stroke-linejoin:miter;stroke-miterlimit:4;stroke-dasharray:none;stroke-opacity:1"
         d="m 126.01606,188.19473 0.46969,-1.0751 0.73975,1.06682 z"
         id="path87641"
         sodipodi:nodetypes="cccc" />
    </g>
    <rect
       style="fill:#ffffff;fill-opacity:1;stroke:#fdfdfd;stroke-width:1;stroke-linecap:round;stroke-linejoin:round;stroke-miterlimit:4;stroke-dasharray:none;stroke-dashoffset:0;stroke-opacity:1;paint-order:markers fill stroke"
       id="rect91242"
       width="6.7874799"
       height="2.9843302"
       x="112.66073"
       y="182.62474"
       ry="0.66754472"
       transform="rotate(-4.650918)" />
    <rect
       style="fill:#ffffff;fill-opacity:1;stroke:#494f6b;stroke-width:0.369951;stroke-linecap:round;stroke-linejoin:round;stroke-miterlimit:4;stroke-dasharray:none;stroke-dashoffset:0;stroke-opacity:1;paint-order:markers fill stroke"
       id="rect91142"
       width="6.7874799"
       height="2.9843302"
       x="112.66073"
       y="182.62474"
       ry="0.66754472"
       transform="rotate(-4.650918)" />
  </g>
</svg>
