<?xml version="1.0" encoding="UTF-8" standalone="no"?>
<!-- Created with Inkscape (http://www.inkscape.org/) -->

<svg
   width="23.860939mm"
   height="25.981855mm"
   viewBox="0 0 23.860939 25.981855"
   version="1.1"
   id="svg5"
   xmlns="http://www.w3.org/2000/svg"
   xmlns:svg="http://www.w3.org/2000/svg">
  <defs
     id="defs2" />
  <g
     id="layer1"
     transform="translate(-120.60189,-168.99613)">
    <g
       id="path26360"
       transform="matrix(1.0617138,0,0,1.0617138,-7.6484106,-10.304834)">
      <path
         id="path50208"
         style="color:#000000;fill:#7d8fdc;fill-opacity:1;stroke-width:1.88379;-inkscape-stroke:none"
         d="m 133.34287,170.67455 c -0.0766,-6.4e-4 -0.15282,7.7e-4 -0.22893,0.004 -1.11853,0.0495 -2.09163,0.50516 -2.93574,0.87489 -0.84399,0.36969 -1.73921,0.7584 -2.66598,1.43143 -0.93337,0.67782 -1.81413,1.58521 -2.48822,2.48047 -0.67223,0.89281 -1.16514,1.82123 -1.44539,2.83394 -0.27771,1.00352 -0.35067,2.02719 -0.37673,3.07268 -0.0261,1.0478 -0.005,2.04154 -0.13694,2.91765 -0.13194,0.8784 -0.45259,1.79546 -0.56844,2.94556 -0.11703,1.16175 -0.007,2.44515 0.62115,3.51348 0.59259,1.00704 1.53631,1.63733 2.5585,1.90841 1.04369,0.27679 2.12632,0.19885 3.19154,0.002 1.08257,-0.20007 2.28634,-0.53565 3.04322,-0.49041 0.78035,0.0466 1.66437,0.47308 2.75539,0.75396 1.12421,0.28943 2.41891,0.3254 3.51762,0.0703 1.08896,-0.25283 2.13799,-0.8054 2.82618,-1.68361 0.7793,-0.99443 0.99961,-2.32428 0.7736,-3.52744 -0.20367,-1.08422 -0.74953,-2.04534 -1.16789,-2.90835 -0.41786,-0.86197 -0.76092,-1.70671 -0.86351,-2.27893 -0.0987,-0.55025 -0.0248,-1.11882 0.23047,-1.75803 0.25731,-0.64425 0.76616,-1.48572 1.08831,-2.12907 0.33069,-0.6604 0.45563,-1.2071 0.49609,-1.39061 0.0101,-0.0459 0.0403,-0.13708 0.0388,-0.32401 -0.002,-0.18694 -0.079,-0.43059 -0.16226,-0.57051 -0.1664,-0.27986 -0.27405,-0.34638 -0.46458,-0.54105 -0.38106,-0.38936 -1.15078,-1.17465 -1.92391,-1.96267 -0.77312,-0.78802 -1.56329,-1.61211 -2.46858,-2.19935 -0.9031,-0.58584 -2.09493,-1.03529 -3.24373,-1.0449 z" />
    </g>
    <rect
       style="fill:#ababab;fill-opacity:1;stroke:#5f5f5f;stroke-width:0.5;stroke-linecap:round;stroke-linejoin:round;stroke-miterlimit:4;stroke-dasharray:none;stroke-opacity:1;paint-order:markers fill stroke"
       id="rect917"
       width="11.596662"
       height="16.955118"
       x="125.37184"
       y="172.16766"
       ry="1.507453" />
    <path
       id="rect3303"
       style="fill:#ddae96;fill-opacity:1;stroke:#85482a;stroke-width:0.5;stroke-linecap:round;stroke-linejoin:round;stroke-miterlimit:4;stroke-dasharray:none;stroke-opacity:1;paint-order:markers fill stroke"
       d="m 126.18709,172.16767 4.51871,-2.5443 c 0.78488,-0.44195 1.05989,0.87289 1.05989,1.95986 v 18.12397 c 0,1.08578 -0.27501,2.40183 -1.05989,1.95988 l -4.51871,-2.5443 c -0.43205,-0.24327 -0.81524,-0.67232 -0.81524,-1.50746 v -13.94021 c 0,-0.83512 0.38319,-1.26417 0.81524,-1.50744 z" />
    <rect
       style="fill:#85482a;fill-opacity:1;stroke-width:0.504698;stroke-linecap:round;stroke-linejoin:round;paint-order:markers fill stroke"
       id="rect8301"
       width="0.67980427"
       height="3.0591192"
       x="129.71059"
       y="178.06593"
       ry="0.33990213" />
    <rect
       style="fill:#85482a;fill-opacity:1;stroke-width:0.504698;stroke-linecap:round;stroke-linejoin:round;paint-order:markers fill stroke"
       id="rect8405"
       width="0.91973525"
       height="0.47986189"
       x="129.90053"
       y="178.68576"
       ry="0.23993094" />
    <path
       id="path69847"
       style="fill:#fdfdfd;fill-opacity:1;stroke:#383838;stroke-width:0.4;stroke-linecap:round;stroke-linejoin:round;stroke-miterlimit:4;stroke-dasharray:none;stroke-opacity:1;paint-order:markers fill stroke"
       d="m 138.75473,178.53306 a 1.9124915,1.9124915 0 0 1 2.46223,1.11923 1.9124915,1.9124915 0 0 1 -1.11923,2.46224 1.9124915,1.9124915 0 0 1 -2.30104,-0.79236 l -0.6298,0.74797 -0.6503,-0.37895 -0.40314,0.78078 -0.68897,-0.39536 -0.347,0.77695 -0.75173,-0.348 -0.67446,0.48401 -1.30334,-0.24395 0.77304,-0.96341 4.40251,-1.65089 a 1.9124915,1.9124915 0 0 1 1.23109,-1.59831 z m 1.16221,1.2216 a 0.36062287,0.36062287 0 0 0 -0.21115,0.46431 0.36062287,0.36062287 0 0 0 0.46438,0.21099 0.36062287,0.36062287 0 0 0 0.21099,-0.46425 0.36062287,0.36062287 0 0 0 -0.46423,-0.21105 z" />
  </g>
</svg>
