<?xml version="1.0" encoding="UTF-8" standalone="no"?>
<!-- Created with Inkscape (http://www.inkscape.org/) -->

<svg
   width="88.4786mm"
   height="87.250038mm"
   viewBox="0 0 88.478599 87.250037"
   version="1.1"
   id="svg5"
   sodipodi:docname="register2.svg"
   inkscape:version="1.1.1 (3bf5ae0d25, 2021-09-20)"
   xmlns:inkscape="http://www.inkscape.org/namespaces/inkscape"
   xmlns:sodipodi="http://sodipodi.sourceforge.net/DTD/sodipodi-0.dtd"
   xmlns="http://www.w3.org/2000/svg"
   xmlns:svg="http://www.w3.org/2000/svg">
  <sodipodi:namedview
     id="namedview23"
     pagecolor="#ffffff"
     bordercolor="#666666"
     borderopacity="1.0"
     inkscape:pageshadow="2"
     inkscape:pageopacity="0.0"
     inkscape:pagecheckerboard="0"
     inkscape:document-units="mm"
     showgrid="false"
     inkscape:zoom="2.4320429"
     inkscape:cx="113.48484"
     inkscape:cy="69.694495"
     inkscape:window-width="1920"
     inkscape:window-height="991"
     inkscape:window-x="-9"
     inkscape:window-y="-9"
     inkscape:window-maximized="1"
     inkscape:current-layer="svg5" />
  <defs
     id="defs2">
    <mask
       maskUnits="userSpaceOnUse"
       id="mask5517">
      <rect
         style="fill:#ecd7d7;fill-opacity:1;stroke:none;stroke-width:2;stroke-linecap:round;stroke-linejoin:miter;stroke-miterlimit:4;stroke-dasharray:none;stroke-opacity:1;paint-order:markers fill stroke"
         id="rect5519"
         width="40.226444"
         height="34.847977"
         x="-197.73607"
         y="-111.13232"
         ry="7.0691376" />
    </mask>
  </defs>
  <g
     id="layer1"
     transform="translate(105.96411,-68.605734)">
    <path
       style="fill:#ffd2a7;fill-opacity:0.983687;stroke:none;stroke-width:0.264583px;stroke-linecap:butt;stroke-linejoin:miter;stroke-opacity:1"
       d="m -103.17058,93.157273 c 3.764545,7.385617 -4.89294,17.868977 -2.30038,24.760267 3.29105,8.74793 14.716541,11.83102 12.983971,21.05959 -2.677142,14.25987 16.997613,10.64746 23.835348,6.11674 6.86861,-4.55117 20.66145,14.38212 28.775094,10.13675 9.279561,-4.85543 14.860338,-22.12873 10.583094,-33.53849 -3.288615,-8.77255 13.47751,-16.178 11.671396,-27.375847 C -19.814753,80.721612 -30.17419,81.11008 -38.25572,83.190859 c -13.256286,3.41314 -13.548021,-6.412222 -21.204378,-12.165087 -10.123074,-7.606318 -18.312721,5.464453 -29.232929,1.990386 -13.404273,0.250008 -17.058553,15.077489 -14.477553,20.141115 z"
       id="path4687" />
    <path
       style="fill:#ffffff;fill-opacity:1;stroke:none;stroke-width:0.264583px;stroke-linecap:butt;stroke-linejoin:miter;stroke-opacity:1"
       d="m -90.94832,75.977423 51.817917,-0.316928 1.267717,2.614665 -0.554628,62.91044 -52.610238,0.47539 -1.188485,-4.99163 z"
       id="path3580" />
    <path
       id="path902"
       style="fill:#2f1600;fill-opacity:0.858824;stroke-width:21.9339;stroke-linecap:round;stroke-linejoin:round;paint-order:markers fill stroke"
       d="m -76.981444,83.358563 a 5.7756565,5.7756565 0 0 0 -5.775579,5.77558 5.7756565,5.7756565 0 0 0 5.775579,5.77615 5.7756565,5.7756565 0 0 0 5.775581,-5.77615 5.7756565,5.7756565 0 0 0 -5.775581,-5.77558 z m 0,12.53444 c -3.982622,0 -7.189014,3.69938 -7.189014,8.294707 v 1.78238 h 14.378027 v -1.78238 c 0,-4.595327 -3.206388,-8.294707 -7.189013,-8.294707 z" />
    <path
       style="color:#000000;fill:#4c3624;fill-opacity:1;stroke-linecap:round;-inkscape-stroke:none;paint-order:markers fill stroke"
       d="m -93.193342,74.198943 v 1.5 66.894537 h 56.251958 V 74.198943 Z m 3,3 h 50.251958 v 62.394537 h -50.251958 z"
       id="rect1423" />
    <path
       style="color:#000000;fill:#4c3624;fill-opacity:1;-inkscape-stroke:none"
       d="m -85.824202,111.83957 v 3 h 41.34375 v -3 z"
       id="path1974" />
    <path
       style="color:#000000;fill:#4c3624;fill-opacity:1;-inkscape-stroke:none"
       d="m -85.824202,121.15793 v 3 h 41.34375 v -3 z"
       id="path2058" />
    <path
       style="color:#000000;fill:#4c3624;fill-opacity:1;-inkscape-stroke:none"
       d="m -85.665998,130.47433 v 3 h 41.34375 v -3 z"
       id="path2060" />
    <path
       style="color:#000000;fill:#4c3624;fill-opacity:1;-inkscape-stroke:none"
       d="m -64.589827,102.52121 v 3 h 20.583985 v -3 z"
       id="path2142" />
    <path
       style="color:#000000;fill:#4c3624;fill-opacity:1;-inkscape-stroke:none"
       d="m -64.589827,93.204803 v 3 h 20.583985 v -3 z"
       id="path2146" />
    <path
       style="color:#000000;fill:#4c3624;fill-opacity:1;-inkscape-stroke:none"
       d="m -65.222639,83.886443 v 3 h 20.583984 v -3 z"
       id="path2148" />
    <rect
       style="fill:#ffffff;fill-opacity:1;stroke:none;stroke-width:1.84191;stroke-linecap:round;stroke-linejoin:miter;stroke-miterlimit:4;stroke-dasharray:none;stroke-opacity:1;paint-order:markers fill stroke"
       id="rect3513"
       width="13.333424"
       height="47.319904"
       x="23.589525"
       y="86.522079"
       ry="7.0691323"
       transform="rotate(35.869541)" />
    <g
       id="g3523"
       transform="matrix(0.49197467,0.35573184,-0.35573184,0.49197467,33.643837,7.9262509)"
       style="fill:#4c3624;fill-opacity:1">
      <rect
         style="fill:#4c3624;fill-opacity:1;stroke:none;stroke-width:3;stroke-linecap:round;stroke-linejoin:miter;stroke-miterlimit:4;stroke-dasharray:none;stroke-opacity:1;paint-order:markers fill stroke"
         id="rect3515"
         width="8.0676994"
         height="48.406193"
         x="-6.6884732"
         y="174.3746" />
      <rect
         style="fill:#4c3624;fill-opacity:1;stroke:none;stroke-width:3.91557;stroke-linecap:round;stroke-linejoin:miter;stroke-miterlimit:4;stroke-dasharray:none;stroke-opacity:1;paint-order:markers fill stroke"
         id="rect3517"
         width="2.3469071"
         height="4.9615726"
         x="-3.8280771"
         y="168.81308" />
      <path
         style="fill:#4c3624;fill-opacity:1;stroke:none;stroke-width:12.3515;stroke-linecap:round;stroke-linejoin:miter;stroke-miterlimit:4;stroke-dasharray:none;stroke-opacity:1;paint-order:markers fill stroke"
         id="path3519"
         d="m -483.63846,230.83046 -6.97814,-12.0865 -6.97814,-12.08649 13.95628,0 13.95628,0 -6.97814,12.08649 z"
         transform="matrix(0.2846552,0,0,0.5032905,135.01558,119.58608)" />
      <path
         style="color:#000000;fill:#4c3624;fill-opacity:1;-inkscape-stroke:none"
         d="m -10.853516,177.10742 v 13.75586 h 2.0000004 v -11.75586 h 1.9707031 v -2 z"
         id="path3521" />
    </g>
  </g>
  <g
     id="path2302"
     inkscape:transform-center-x="3.0995076e-06"
     inkscape:transform-center-y="0.41686021"
     transform="matrix(0.03560014,0,0,-0.02911971,14.430663,27.908433)">
    <path
       id="path2553"
       style="color:#000000;fill:#2b0000;stroke-width:31.0585;stroke-linecap:round;stroke-linejoin:round;-inkscape-stroke:none;paint-order:markers fill stroke"
       d="m 361.36076,-11.667946 a 15.530803,15.530803 0 0 1 -13.44162,-23.28302 l 24.79294,-42.945792 24.793,-42.945792 a 15.530803,15.530803 0 0 1 8.14334,-6.83235 15.530803,15.530803 0 0 1 18.75442,6.83235 l 24.793,42.945792 24.793,42.945792 a 15.530803,15.530803 0 0 1 -13.44168,23.28302 h -49.60041 z" />
  </g>
  <g
     id="path2406"
     inkscape:transform-center-x="2.4433059e-06"
     inkscape:transform-center-y="-1.410559"
     transform="matrix(0.04684755,0,0,0.09853454,9.6959671,44.770669)">
    <path
       id="path2546"
       style="color:#000000;fill:#2b0000;stroke-width:29.4369;stroke-linecap:round;stroke-linejoin:round;-inkscape-stroke:none;paint-order:markers fill stroke"
       d="m 413.3949,-127.70319 a 14.719921,14.719921 0 0 0 -6.7398,0.78668 14.719921,14.719921 0 0 0 -7.71048,6.47172 l -24.79719,42.947205 -24.79715,42.947203 a 14.719921,14.719921 0 0 0 12.75156,22.074089 h 49.58332 49.59432 a 14.719921,14.719921 0 0 0 12.75155,-22.074089 l -24.79719,-42.947203 -24.79713,-42.947205 a 14.719921,14.719921 0 0 0 -11.04181,-7.2584 z" />
  </g>
  <rect
     style="fill:#2b0000;stroke:none;stroke-width:2.47558;stroke-linecap:round;stroke-linejoin:round;stroke-miterlimit:4;stroke-dasharray:none;stroke-opacity:1;paint-order:markers fill stroke"
     id="rect2759"
     width="9.7825012"
     height="8.0003605"
     x="24.558607"
     y="41.671936"
     ry="0" />
  <circle
     style="fill:#c83737;stroke:none;stroke-width:2;stroke-linecap:round;stroke-linejoin:round;stroke-miterlimit:4;stroke-dasharray:none;stroke-opacity:1;paint-order:markers fill stroke"
     id="path3330"
     cx="29.060682"
     cy="32.949944"
     r="4.6235995" />
  <g
     id="path2302-2"
     inkscape:transform-center-x="3.0995076e-06"
     inkscape:transform-center-y="0.41686021"
     transform="matrix(0.03560014,0,0,-0.02911971,-39.869432,4.485006)">
    <path
       id="path2553-1"
       style="color:#000000;fill:#2b0000;stroke-width:31.0585;stroke-linecap:round;stroke-linejoin:round;-inkscape-stroke:none;paint-order:markers fill stroke"
       d="m 361.36076,-11.667946 a 15.530803,15.530803 0 0 1 -13.44162,-23.28302 l 24.79294,-42.945792 24.793,-42.945792 a 15.530803,15.530803 0 0 1 8.14334,-6.83235 15.530803,15.530803 0 0 1 18.75442,6.83235 l 24.793,42.945792 24.793,42.945792 a 15.530803,15.530803 0 0 1 -13.44168,23.28302 h -49.60041 z" />
  </g>
  <path
     id="circle3854"
     style="fill:#c83737;stroke-width:2;stroke-linecap:round;stroke-linejoin:round;paint-order:markers fill stroke"
     d="m -25.712699,24.520338 a 2.4424179,2.4424179 0 0 1 -2.442418,2.442418 2.4424179,2.4424179 0 0 1 -2.442418,-2.442418 2.4424179,2.4424179 0 0 1 2.442418,-2.442418 2.4424179,2.4424179 0 0 1 2.442418,2.442418 z" />
  <g
     id="g3459"
     inkscape:transform-center-x="3.0995076e-06"
     inkscape:transform-center-y="0.41686021"
     transform="matrix(0.03560014,0,0,-0.02911971,-42.715714,21.254994)">
    <path
       id="path3483"
       style="color:#000000;fill:#2b0000;stroke-width:31.0585;stroke-linecap:round;stroke-linejoin:round;-inkscape-stroke:none;paint-order:markers fill stroke"
       d="m 361.36076,-11.667946 a 15.530803,15.530803 0 0 1 -13.44162,-23.28302 l 24.79294,-42.945792 24.793,-42.945792 a 15.530803,15.530803 0 0 1 8.14334,-6.83235 15.530803,15.530803 0 0 1 18.75442,6.83235 l 24.793,42.945792 24.793,42.945792 a 15.530803,15.530803 0 0 1 -13.44168,23.28302 h -49.60041 z" />
  </g>
</svg>
